# xmcd
#
# Track frame offsets: 
#        150
#        21868
#        47077
#        78119
#        102562
#        123274
#        143195
#        176038
#        203451
#        228165
#        256199
#
# Disc length: 3925 seconds
#
# Revision: 1
# Processed by: cddbd v1.5.2PL0 Copyright (c) Steve Scherf et al.
# Submitted via: ExactAudioCopy v0.99pb4
#
DISCID=870f530b
DTITLE=Various Artist - Millennium - The Finest Collection (Ghazals vol 4)
DYEAR=1999
DGENRE=Ghazals
TTITLE0=Talat Aziz, Naushad, Tasleem Fazli - Khuda Kare Ke Mohabbat Me
TTITLE0=in (1990)
TTITLE1=Rajkumar Rizvi, Rajkumar Rizvi, Qateel Shifai - Tune Yeh Phool
TTITLE1=Jo Zulfon Mein Saja Rakha
TTITLE2=Parvez Mehdi, Parvez Mehdi, Ahmed Shahzdar - Jo Shajar Sookh G
TTITLE2=aya Ho (1986)
TTITLE3=Talat Aziz, Talat Aziz, Ibraheem Ashq - Bahut Haseen Hai Mera 
TTITLE3=Dilruba Na Ho Jaye (1984)
TTITLE4=Ghulam Ali, Ghulam Ali, Rifat Sultan - Baharon Ko Chaman Yaad 
TTITLE4=Aa Gaya Hai
TTITLE5=Runa Laila, Pt Ghulam Qadir, Ahmed Faraz - Ranjish Hi Sahi
TTITLE6=Ghulam Ali, Ghulam Ali, Masroor Anwar - Hum Ko Kisi Ke Gham Ne
TTITLE6=Mara
TTITLE7=Ahmed and Mohammed Hussain, Ahmed and Mohammed Hussain, Danish Ali
TTITLE7=gari - Do Jawan Dilon Ka Gham (1985)
TTITLE8=Talat Aziz, Talat Aziz, Ahmed Rahi  - Ab Yahan Koi Nahin Aayeg
TTITLE8=a (1984)
TTITLE9=Ahmed and Mohammed Hussain, Ahmed and Mohammed Hussain, Bashir Bad
TTITLE9=r - Kabhi Yun Bhi Aa
TTITLE10=Ghulam Ali, Ghulam Ali, Dagh Dehlvi - Hungama Hai Kyon Barpa
EXTD=
EXTT0=
EXTT1=
EXTT2=
EXTT3=
EXTT4=
EXTT5=
EXTT6=
EXTT7=
EXTT8=
EXTT9=
EXTT10=
PLAYORDER=
